<?xml version="1.0" encoding="utf-8"?>

<svg xmlns="http://www.w3.org/2000/svg">
  <symbol id="bluesky-icon" viewBox="0 0 16 17">
    <g clip-path="url(#bluesky-clip)"><path fill="currentColor" d="M7.75 7.735c-.693-1.348-2.58-3.86-4.334-5.097-1.68-1.187-2.32-.981-2.74-.79C.188 2.065.1 2.812.1 3.251s.241 3.602.398 4.13c.52 1.744 2.367 2.333 4.07 2.145-2.495.37-4.71 1.278-1.805 4.512 3.196 3.309 4.38-.71 4.987-2.746.608 2.036 1.307 5.91 4.93 2.746 2.72-2.746.747-4.143-1.747-4.512 1.702.189 3.55-.4 4.07-2.145.156-.528.397-3.691.397-4.13s-.088-1.186-.575-1.406c-.42-.19-1.06-.395-2.741.79-1.755 1.24-3.64 3.752-4.334 5.099"/></g>
    <defs><clipPath id="bluesky-clip"><path fill="#fff" d="M.1.85h15.3v15.3H.1z"/></clipPath></defs>
  </symbol>
  <symbol id="discord-icon" viewBox="0 0 20 19">
    <path fill="currentColor" d="M16.224 3.768a14.5 14.5 0 0 0-3.67-1.153c-.158.286-.343.67-.47.976a13.5 13.5 0 0 0-4.067 0c-.128-.306-.317-.69-.476-.976A14.4 14.4 0 0 0 3.868 3.77C1.546 7.28.916 10.703 1.231 14.077a14.7 14.7 0 0 0 4.5 2.306q.545-.748.965-1.587a9.5 9.5 0 0 1-1.518-.74q.191-.14.372-.293c2.927 1.369 6.107 1.369 8.999 0q.183.152.372.294-.723.437-1.52.74.418.838.963 1.588a14.6 14.6 0 0 0 4.504-2.308c.37-3.911-.63-7.302-2.644-10.309m-9.13 8.234c-.878 0-1.599-.82-1.599-1.82 0-.998.705-1.82 1.6-1.82.894 0 1.614.82 1.599 1.82.001 1-.705 1.82-1.6 1.82m5.91 0c-.878 0-1.599-.82-1.599-1.82 0-.998.705-1.82 1.6-1.82.893 0 1.614.82 1.599 1.82 0 1-.706 1.82-1.6 1.82"/>
  </symbol>
  <symbol id="documentation-icon" viewBox="0 0 21 20">
    <path fill="none" stroke="currentColor" stroke-linecap="round" stroke-linejoin="round" stroke-width="1.35" d="m15.5 13.333 1.533 1.322c.645.555.967.833.967 1.178s-.322.623-.967 1.179L15.5 18.333m-3.333-5-1.534 1.322c-.644.555-.966.833-.966 1.178s.322.623.966 1.179l1.534 1.321"/>
    <path fill="none" stroke="currentColor" stroke-linecap="round" stroke-linejoin="round" stroke-width="1.35" d="M17.167 10.836v-4.32c0-1.41 0-2.117-.224-2.68-.359-.906-1.118-1.621-2.08-1.96-.599-.21-1.349-.21-2.848-.21-2.623 0-3.935 0-4.983.369-1.684.591-3.013 1.842-3.641 3.428C3 6.449 3 7.684 3 10.154v2.122c0 2.558 0 3.838.706 4.726q.306.383.713.671c.76.536 1.79.64 3.581.66"/>
    <path fill="none" stroke="currentColor" stroke-linecap="round" stroke-linejoin="round" stroke-width="1.35" d="M3 10a2.78 2.78 0 0 1 2.778-2.778c.555 0 1.209.097 1.748-.047.48-.129.854-.503.982-.982.145-.54.048-1.194.048-1.749a2.78 2.78 0 0 1 2.777-2.777"/>
  </symbol>
  <symbol id="github-icon" viewBox="0 0 19 19">
    <path fill="currentColor" fill-rule="evenodd" d="M9.356 1.85C5.05 1.85 1.57 5.356 1.57 9.694a7.84 7.84 0 0 0 5.324 7.44c.387.079.528-.168.528-.376 0-.182-.013-.805-.013-1.454-2.165.467-2.616-.935-2.616-.935-.349-.91-.864-1.143-.864-1.143-.71-.48.051-.48.051-.48.787.051 1.2.805 1.2.805.695 1.194 1.817.857 2.268.649.064-.507.27-.857.49-1.052-1.728-.182-3.545-.857-3.545-3.87 0-.857.31-1.558.8-2.104-.078-.195-.349-1 .077-2.078 0 0 .657-.208 2.14.805a7.5 7.5 0 0 1 1.946-.26c.657 0 1.328.092 1.946.26 1.483-1.013 2.14-.805 2.14-.805.426 1.078.155 1.883.078 2.078.502.546.799 1.247.799 2.104 0 3.013-1.818 3.675-3.558 3.87.284.247.528.714.528 1.454 0 1.052-.012 1.896-.012 2.156 0 .208.142.455.528.377a7.84 7.84 0 0 0 5.324-7.441c.013-4.338-3.48-7.844-7.773-7.844" clip-rule="evenodd"/>
  </symbol>
  <symbol id="social-icon" viewBox="0 0 20 20">
    <path fill="none" stroke="currentColor" stroke-linecap="round" stroke-linejoin="round" stroke-width="1.35" d="M12.5 6.667a4.167 4.167 0 1 0-8.334 0 4.167 4.167 0 0 0 8.334 0"/>
    <path fill="none" stroke="currentColor" stroke-linecap="round" stroke-linejoin="round" stroke-width="1.35" d="M2.5 16.667a5.833 5.833 0 0 1 8.75-5.053m3.837.474.513 1.035c.07.144.257.282.414.309l.93.155c.596.1.736.536.307.965l-.723.73a.64.64 0 0 0-.152.531l.207.903c.164.715-.213.991-.84.618l-.872-.52a.63.63 0 0 0-.577 0l-.872.52c-.624.373-1.003.094-.84-.618l.207-.903a.64.64 0 0 0-.152-.532l-.723-.729c-.426-.43-.289-.864.306-.964l.93-.156a.64.64 0 0 0 .412-.31l.513-1.034c.28-.562.735-.562 1.012 0"/>
  </symbol>
  <symbol id="spotify-icon" viewBox="0 0 24 24">
    <path fill="currentColor" d="M12 0C5.4 0 0 5.4 0 12s5.4 12 12 12 12-5.4 12-12S18.66 0 12 0zm5.521 17.34c-.24.359-.66.48-1.021.24-2.82-1.74-6.36-2.101-10.561-1.141-.418.122-.779-.179-.899-.539-.12-.421.18-.78.54-.9 4.56-1.021 8.52-.6 11.64 1.32.42.18.479.659.301 1.02zm1.44-3.3c-.301.42-.841.6-1.262.3-3.239-1.98-8.159-2.58-11.939-1.38-.479.12-1.02-.12-1.14-.6-.12-.48.12-1.021.6-1.141C9.6 9.9 15 10.561 18.72 12.84c.361.181.54.78.241 1.2zm.12-3.36C15.24 8.4 8.82 8.16 5.16 9.301c-.6.179-1.2-.181-1.38-.721-.18-.601.18-1.201.72-1.381 4.26-1.26 11.28-1.02 15.721 1.621.539.3.719 1.02.419 1.56-.299.421-1.02.599-1.559.3z"/>
  </symbol>
  <symbol id="reddit-icon" viewBox="0 0 16 16">
    <path fill="currentColor" d="M6.167 8a.83.83 0 0 0-.83.83c0 .459.372.84.83.831a.831.831 0 0 0 0-1.661m1.843 3.647c.315 0 1.403-.038 1.976-.611a.23.23 0 0 0 0-.306.213.213 0 0 0-.306 0c-.353.363-1.126.487-1.67.487-.545 0-1.308-.124-1.671-.487a.213.213 0 0 0-.306 0 .213.213 0 0 0 0 .306c.564.563 1.652.61 1.977.61zm.992-2.807c0 .458.373.83.831.83s.83-.381.83-.83a.831.831 0 0 0-1.66 0z"/>
    <path fill="currentColor" d="M16 8A8 8 0 1 1 0 8a8 8 0 0 1 16 0m-3.828-1.165c-.315 0-.602.124-.812.325-.801-.573-1.9-.945-3.121-.993l.534-2.501 1.738.372a.83.83 0 1 0 .83-.869.83.83 0 0 0-.744.468l-1.938-.41a.2.2 0 0 0-.153.028.2.2 0 0 0-.086.134l-.592 2.788c-1.24.038-2.358.41-3.17.992-.21-.2-.496-.324-.81-.324a1.163 1.163 0 0 0-.478 2.224q-.03.17-.029.353c0 1.795 2.091 3.256 4.669 3.256s4.668-1.451 4.668-3.256c0-.114-.01-.238-.029-.353.401-.181.688-.592.688-1.069 0-.65-.525-1.165-1.165-1.165"/>
  </symbol>
  <symbol id="email-icon" viewBox="0 0 24 24">
    <path fill="currentColor" fill-rule="evenodd" d="M20 4H4c-1.1 0-1.99.9-1.99 2L2 18c0 1.1.9 2 2 2h16c1.1 0 2-.9 2-2V6c0-1.1-.9-2-2-2zm0 4-8 5-8-5V6l8 5 8-5v2z" clip-rule="evenodd"/>
  </symbol>
  <symbol id="bmc-icon" viewBox="0 0 884 1279">
    <path d="M472.623 590.836C426.682 610.503 374.546 632.802 306.976 632.802C278.71 632.746 250.58 628.868 223.353 621.274L270.086 1101.08C271.74 1121.13 280.876 1139.83 295.679 1153.46C310.482 1167.09 329.87 1174.65 349.992 1174.65C349.992 1174.65 416.254 1178.09 438.365 1178.09C462.161 1178.09 533.516 1174.65 533.516 1174.65C553.636 1174.65 573.019 1167.08 587.819 1153.45C602.619 1139.82 611.752 1121.13 613.406 1101.08L663.459 570.876C641.091 563.237 618.516 558.161 593.068 558.161C549.054 558.144 513.591 573.303 472.623 590.836Z" fill="currentColor"/>
    <path d="M78.6885 386.132L79.4799 386.872L79.9962 387.182C79.5987 386.787 79.1603 386.435 78.6885 386.132V386.132Z" fill="currentColor"/>
    <path d="M879.567 341.849L872.53 306.352C866.215 274.503 851.882 244.409 819.19 232.898C808.711 229.215 796.821 227.633 788.786 220.01C780.751 212.388 778.376 200.55 776.518 189.572C773.076 169.423 769.842 149.257 766.314 129.143C763.269 111.85 760.86 92.4243 752.928 76.56C742.604 55.2584 721.182 42.8009 699.88 34.559C688.965 30.4844 677.826 27.0375 666.517 24.2352C613.297 10.1947 557.342 5.03277 502.591 2.09047C436.875 -1.53577 370.983 -0.443234 305.422 5.35968C256.625 9.79894 205.229 15.1674 158.858 32.0469C141.91 38.224 124.445 45.6399 111.558 58.7341C95.7448 74.8221 90.5829 99.7026 102.128 119.765C110.336 134.012 124.239 144.078 138.985 150.737C158.192 159.317 178.251 165.846 198.829 170.215C256.126 182.879 315.471 187.851 374.007 189.968C438.887 192.586 503.87 190.464 568.44 183.618C584.408 181.863 600.347 179.758 616.257 177.304C634.995 174.43 647.022 149.928 641.499 132.859C634.891 112.453 617.134 104.538 597.055 107.618C594.095 108.082 591.153 108.512 588.193 108.942L586.06 109.252C579.257 110.113 572.455 110.915 565.653 111.661C551.601 113.175 537.515 114.414 523.394 115.378C491.768 117.58 460.057 118.595 428.363 118.647C397.219 118.647 366.058 117.769 334.983 115.722C320.805 114.793 306.661 113.611 292.552 112.177C286.134 111.506 279.733 110.801 273.333 110.009L267.241 109.235L265.917 109.046L259.602 108.134C246.697 106.189 233.792 103.953 221.025 101.251C219.737 100.965 218.584 100.249 217.758 99.2193C216.932 98.1901 216.482 96.9099 216.482 95.5903C216.482 94.2706 216.932 92.9904 217.758 91.9612C218.584 90.9319 219.737 90.2152 221.025 89.9293H221.266C232.33 87.5721 243.479 85.5589 254.663 83.8038C258.392 83.2188 262.131 82.6453 265.882 82.0832H265.985C272.988 81.6186 280.026 80.3625 286.994 79.5366C347.624 73.2302 408.614 71.0801 469.538 73.1014C499.115 73.9618 528.676 75.6996 558.116 78.6935C564.448 79.3474 570.746 80.0357 577.043 80.8099C579.452 81.1025 581.878 81.4465 584.305 81.7391L589.191 82.4445C603.438 84.5667 617.61 87.1419 631.708 90.1703C652.597 94.7128 679.422 96.1925 688.713 119.077C691.673 126.338 693.015 134.408 694.649 142.03L696.731 151.752C696.786 151.926 696.826 152.105 696.852 152.285C701.773 175.227 706.7 198.169 711.632 221.111C711.994 222.806 712.002 224.557 711.657 226.255C711.312 227.954 710.621 229.562 709.626 230.982C708.632 232.401 707.355 233.6 705.877 234.504C704.398 235.408 702.75 235.997 701.033 236.236H700.895L697.884 236.649L694.908 237.044C685.478 238.272 676.038 239.419 666.586 240.486C647.968 242.608 629.322 244.443 610.648 245.992C573.539 249.077 536.356 251.102 499.098 252.066C480.114 252.57 461.135 252.806 442.162 252.771C366.643 252.712 291.189 248.322 216.173 239.625C208.051 238.662 199.93 237.629 191.808 236.58C198.106 237.389 187.231 235.96 185.029 235.651C179.867 234.928 174.705 234.177 169.543 233.397C152.216 230.798 134.993 227.598 117.7 224.793C96.7944 221.352 76.8005 223.073 57.8906 233.397C42.3685 241.891 29.8055 254.916 21.8776 270.735C13.7217 287.597 11.2956 305.956 7.64786 324.075C4.00009 342.193 -1.67805 361.688 0.472751 380.288C5.10128 420.431 33.165 453.054 73.5313 460.35C111.506 467.232 149.687 472.807 187.971 477.556C338.361 495.975 490.294 498.178 641.155 484.129C653.44 482.982 665.708 481.732 677.959 480.378C681.786 479.958 685.658 480.398 689.292 481.668C692.926 482.938 696.23 485.005 698.962 487.717C701.694 490.429 703.784 493.718 705.08 497.342C706.377 500.967 706.846 504.836 706.453 508.665L702.633 545.797C694.936 620.828 687.239 695.854 679.542 770.874C671.513 849.657 663.431 928.434 655.298 1007.2C653.004 1029.39 650.71 1051.57 648.416 1073.74C646.213 1095.58 645.904 1118.1 641.757 1139.68C635.218 1173.61 612.248 1194.45 578.73 1202.07C548.022 1209.06 516.652 1212.73 485.161 1213.01C450.249 1213.2 415.355 1211.65 380.443 1211.84C343.173 1212.05 297.525 1208.61 268.756 1180.87C243.479 1156.51 239.986 1118.36 236.545 1085.37C231.957 1041.7 227.409 998.039 222.9 954.381L197.607 711.615L181.244 554.538C180.968 551.94 180.693 549.376 180.435 546.76C178.473 528.023 165.207 509.681 144.301 510.627C126.407 511.418 106.069 526.629 108.168 546.76L120.298 663.214L145.385 904.104C152.532 972.528 159.661 1040.96 166.773 1109.41C168.15 1122.52 169.44 1135.67 170.885 1148.78C178.749 1220.43 233.465 1259.04 301.224 1269.91C340.799 1276.28 381.337 1277.59 421.497 1278.24C472.979 1279.07 524.977 1281.05 575.615 1271.72C650.653 1257.95 706.952 1207.85 714.987 1130.13C717.282 1107.69 719.576 1085.25 721.87 1062.8C729.498 988.559 737.115 914.313 744.72 840.061L769.601 597.451L781.009 486.263C781.577 480.749 783.905 475.565 787.649 471.478C791.392 467.391 796.352 464.617 801.794 463.567C823.25 459.386 843.761 452.245 859.023 435.916C883.318 409.918 888.153 376.021 879.567 341.849ZM72.4301 365.835C72.757 365.68 72.1548 368.484 71.8967 369.792C71.8451 367.813 71.9483 366.058 72.4301 365.835ZM74.5121 381.94C74.6842 381.819 75.2003 382.508 75.7337 383.334C74.925 382.576 74.4089 382.009 74.4949 381.94H74.5121ZM76.5597 384.641C77.2996 385.897 77.6953 386.689 76.5597 384.641V384.641ZM80.672 387.979H80.7752C80.7752 388.1 80.9645 388.22 81.0333 388.341C80.9192 388.208 80.7925 388.087 80.6548 387.979H80.672ZM800.796 382.989C793.088 390.319 781.473 393.726 769.996 395.43C641.292 414.529 510.713 424.199 380.597 419.932C287.476 416.749 195.336 406.407 103.144 393.382C94.1102 392.109 84.3197 390.457 78.1082 383.798C66.4078 371.237 72.1548 345.944 75.2003 330.768C77.9878 316.865 83.3218 298.334 99.8572 296.355C125.667 293.327 155.64 304.218 181.175 308.09C211.917 312.781 242.774 316.538 273.745 319.36C405.925 331.405 540.325 329.529 671.92 311.91C695.905 308.686 719.805 304.941 743.619 300.674C764.835 296.871 788.356 289.731 801.175 311.703C809.967 326.673 811.137 346.701 809.778 363.615C809.359 370.984 806.139 377.915 800.779 382.989H800.796Z" fill="currentColor"/>
  </symbol>
  <symbol id="contrast-icon" viewBox="0 0 20 20">
    <g fill="currentColor">
      <g transform="translate(-140, -4199) translate(56, 160)">
        <path d="M99.65675,4054.65606 C96.53775,4057.77506 91.46175,4057.77506 88.34275,4054.65606 C85.22375,4051.53706 85.22375,4046.46106 88.34275,4043.34206 C88.35775,4043.32806 88.37275,4043.31306 88.38775,4043.29906 L99.70075,4054.61106 C99.68575,4054.62606 99.67175,4054.64106 99.65675,4054.65606 M101.55475,4055.55106 C104.15875,4052.55406 104.68275,4048.37706 103.12575,4044.90506 C102.66675,4043.80106 102.00175,4042.77006 101.11475,4041.88406 C100.22875,4040.99706 99.19775,4040.33206 98.09275,4039.87306 C94.62075,4038.31706 90.44475,4038.84106 87.44875,4041.44406 C87.28475,4041.58506 87.12575,4041.73106 86.97275,4041.88406 L86.97375,4041.88406 C86.95875,4041.89906 86.94375,4041.91306 86.92875,4041.92806 C83.02375,4045.83306 83.02375,4052.16506 86.92875,4056.07006 C90.83375,4059.97506 97.16575,4059.97506 101.07075,4056.07006 C101.08575,4056.05506 101.09975,4056.04006 101.11475,4056.02506 L101.11475,4056.02606 C101.26775,4055.87306 101.41375,4055.71506 101.55475,4055.55106"/>
      </g>
    </g>
  </symbol>
  <symbol id="dice-icon" viewBox="0 0 20 20">
    <g fill="currentColor">
      <g transform="translate(-180, -8079) translate(56, 160)">
        <path d="M138,7927.1047 C136.896,7927.1047 136,7927.9997 136,7929.1047 C136,7930.2097 136.896,7931.1047 138,7931.1047 C139.104,7931.1047 140,7930.2097 140,7929.1047 C140,7927.9997 139.104,7927.1047 138,7927.1047 L138,7927.1047 Z M130,7927.1047 C128.896,7927.1047 128,7927.9997 128,7929.1047 C128,7930.2097 128.896,7931.1047 130,7931.1047 C131.104,7931.1047 132,7930.2097 132,7929.1047 C132,7927.9997 131.104,7927.1047 130,7927.1047 L130,7927.1047 Z M142,7921.9997 C142,7921.4477 141.552,7920.9997 141,7920.9997 L127,7920.9997 C126.448,7920.9997 126,7921.4477 126,7921.9997 L126,7935.9997 C126,7936.5527 126.448,7936.9997 127,7936.9997 L141,7936.9997 C141.552,7936.9997 142,7936.5527 142,7935.9997 L142,7921.9997 Z M144,7920.9997 L144,7936.9997 C144,7938.1047 143.104,7938.9997 142,7938.9997 L126,7938.9997 C124.896,7938.9997 124,7938.1047 124,7936.9997 L124,7920.9997 C124,7919.8957 124.896,7918.9997 126,7918.9997 L142,7918.9997 C143.104,7918.9997 144,7919.8957 144,7920.9997 L144,7920.9997 Z M130,7922.1047 C128.896,7922.1047 128,7922.9997 128,7924.1047 C128,7925.2097 128.896,7926.1047 130,7926.1047 C131.104,7926.1047 132,7925.2097 132,7924.1047 C132,7922.9997 131.104,7922.1047 130,7922.1047 L130,7922.1047 Z M130,7932.1047 C128.896,7932.1047 128,7932.9997 128,7934.1047 C128,7935.2097 128.896,7936.1047 130,7936.1047 C131.104,7936.1047 132,7935.2097 132,7934.1047 C132,7932.9997 131.104,7932.1047 130,7932.1047 L130,7932.1047 Z M138,7922.1047 C136.896,7922.1047 136,7922.9997 136,7924.1047 C136,7925.2097 136.896,7926.1047 138,7926.1047 C139.104,7926.1047 140,7925.2097 140,7924.1047 C140,7922.9997 139.104,7922.1047 138,7922.1047 L138,7922.1047 Z M140,7934.1047 C140,7935.2097 139.104,7936.1047 138,7936.1047 C136.896,7936.1047 136,7935.2097 136,7934.1047 C136,7932.9997 136.896,7932.1047 138,7932.1047 C139.104,7932.1047 140,7932.9997 140,7934.1047 L140,7934.1047 Z"/>
      </g>
    </g>
  </symbol>
  <symbol id="fileboard-icon" viewBox="-3 0 20 20">
    <g fill="currentColor">
      <g transform="translate(-223, -1959) translate(56, 160)">
        <path d="M179,1816 C179,1816.552 178.552,1817 178,1817 L170,1817 C169.448,1817 169,1816.552 169,1816 L169,1803.5 C169,1803.224 169.224,1803 169.5,1803 L170,1803 C170,1804.104 170.895,1805 172,1805 L176,1805 C177.105,1805 178,1804.104 178,1803 L178.5,1803 C178.776,1803 179,1803.224 179,1803.5 L179,1816 Z M173,1801 L175,1801 C175.552,1801 176,1801.448 176,1802 C176,1802.552 175.552,1803 175,1803 L173,1803 C172.448,1803 172,1802.552 172,1802 C172,1801.448 172.448,1801 173,1801 L173,1801 Z M179,1801 L178,1801 C178,1799.895 177.105,1799 176,1799 L172,1799 C170.895,1799 170,1799.895 170,1801 L169,1801 C167.895,1801 167,1801.895 167,1803 L167,1817 C167,1818.104 167.895,1819 169,1819 L179,1819 C180.105,1819 181,1818.104 181,1817 L181,1803 C181,1801.895 180.105,1801 179,1801 L179,1801 Z"/>
      </g>
    </g>
  </symbol>
  <symbol id="game-controller-icon" viewBox="0 0 20 20">
    <g fill="currentColor">
      <g transform="translate(-140, -4719) translate(56, 160)">
        <path d="M86,4577 L102,4577 L102,4569 L86,4569 L86,4577 Z M104,4567 L104,4569 L104,4577 L104,4579 L102,4579 L86,4579 L84,4579 L84,4577 L84,4569 L84,4567 L86,4567 L93,4567 L93,4563 L93,4561 L98,4561 L98,4559 L100,4559 L100,4561 L100,4563 L95,4563 L95,4567 L102,4567 L104,4567 Z M98,4574 L100,4574 L100,4572 L98,4572 L98,4574 Z M95,4574 C95.552,4574 96,4573.552 96,4573 C96,4572.448 95.552,4572 95,4572 C94.448,4572 94,4572.448 94,4573 C94,4573.552 94.448,4574 95,4574 L95,4574 Z M88,4572 L89,4572 L89,4571 L91,4571 L91,4572 L92,4572 L92,4574 L91,4574 L91,4575 L89,4575 L89,4574 L88,4574 L88,4572 Z"/>
      </g>
    </g>
  </symbol>
  <symbol id="link-icon" viewBox="0 0 20 20">
    <g fill="currentColor">
      <g transform="translate(-380, -3279) translate(56, 160)">
        <path d="M342.238743,3120.76128 C339.890401,3118.41291 336.082738,3118.41291 333.734396,3120.76128 L331.165552,3123.33016 L332.582776,3124.7474 L335.15162,3122.17852 C336.718184,3120.61194 339.253953,3120.61194 340.821519,3122.17852 C342.384074,3123.7421 342.384074,3126.28491 340.821519,3127.84849 L338.252675,3130.41737 L339.669899,3131.83461 L342.238743,3129.26573 C344.587086,3126.91736 344.587086,3123.10965 342.238743,3120.76128 L342.238743,3120.76128 Z M332.84838,3135.82073 C332.091659,3136.57846 331.084367,3136.99541 330.013932,3136.99541 C328.943496,3136.99541 327.936205,3136.57846 327.179483,3135.82073 C325.615926,3134.25815 325.615926,3131.71433 327.179483,3130.15176 L329.748327,3127.58288 L328.330101,3126.16464 L325.761257,3128.73352 C323.412914,3131.08189 323.412914,3134.8896 325.761257,3137.23897 C326.935929,3138.41266 328.474429,3139 330.013932,3139 C331.553434,3139 333.091934,3138.41266 334.266607,3137.23897 L336.835451,3134.6701 L335.417224,3133.25185 L332.84838,3135.82073 Z M336.263149,3125.31971 L337.680373,3126.73695 L331.721817,3132.69558 L330.304593,3131.27834 L336.263149,3125.31971 Z"/>
      </g>
    </g>
  </symbol>
  <symbol id="japanese-icon" viewBox="0 0 24 24" fill="none">
    <path d="M15.4862 9C15.5559 9.45126 15.5119 10.0367 15.3595 10.7008M15.3595 10.7008C14.647 13.8037 11.5647 18.6233 6.63251 19.4919C6.63251 19.4919 5.28441 19.7802 4.54266 19.0227C3.28198 17.7351 3.41266 14.3283 14.0208 11.0015C14.456 10.865 14.9075 10.764 15.3595 10.7008ZM15.3595 10.7008C19.6125 10.1058 23.899 12.8624 14.8758 21M7.53125 6C9 6 13 5.5 15.5352 5M11.5306 3C10.5 7 9.5 10.5 11.5306 19" stroke="currentColor" stroke-width="2" stroke-linecap="round" stroke-linejoin="round"/>
  </symbol>
  <symbol id="music-icon" viewBox="0 0 24 24" fill="none">
    <path d="M9 19C9 20.1046 7.65685 21 6 21C4.34315 21 3 20.1046 3 19C3 17.8954 4.34315 17 6 17C7.65685 17 9 17.8954 9 19ZM9 19V5L21 3V17M21 17C21 18.1046 19.6569 19 18 19C16.3431 19 15 18.1046 15 17C15 15.8954 16.3431 15 18 15C19.6569 15 21 15.8954 21 17ZM9 9L21 7" stroke="currentColor" stroke-width="2" stroke-linecap="round" stroke-linejoin="round"/>
  </symbol>
  <symbol id="paperclip-icon" viewBox="0 0 24 24" fill="none">
    <path d="M19.8278 11.2437L12.7074 18.3641C10.7548 20.3167 7.58896 20.3167 5.63634 18.3641C3.68372 16.4114 3.68372 13.2456 5.63634 11.293L12.4717 4.45763C13.7735 3.15589 15.884 3.15589 17.1858 4.45763C18.4875 5.75938 18.4875 7.86993 17.1858 9.17168L10.3614 15.9961C9.71048 16.647 8.6552 16.647 8.00433 15.9961C7.35345 15.3452 7.35345 14.2899 8.00433 13.6391L14.2258 7.41762" stroke="currentColor" stroke-width="2" stroke-linecap="round" stroke-linejoin="round"/>
  </symbol>
  <symbol id="csgo-icon" viewBox="150 -50 344.56 344.56" fill="none">
    <path d="M343.816.699c4.56-1.58 9.541-.261 13.72 1.8 2.92 1.88 5.84 3.78 9.11 5.01.25.47.77 1.4 1.02 1.86-.13.31-.38.95-.51 1.26 2.33 5.3 3.82 11.58 1.56 17.149-1.54 1.88-4.22 2.171-6.39 2.899-.01 2.69.42 5.351.65 8.021 4.64.75 8.568-2.48 13.158-2.16.62-2.57 1.11-5.182 1.932-7.701.95 1.67.989 3.591 1 5.471 1.2.34 2.42.65 3.648.949.012.461.021 1.381.021 1.841 20.12.12 40.229-.091 60.35.11-.05.688-.148 2.069-.188 2.76.52 0 1.58.01 2.108.01-.02-3.659 0-7.33-.01-10.989.51-.021 1.51-.051 2.01-.061.012 2.88.021 5.76.051 8.641.439.54 1.319 1.619 1.761 2.159.33-.391.989-1.159 1.318-1.55 1.53 1.431.66 3.391.592 5.149 5.63-.061 11.318.319 16.93-.141.42-.31 1.26-.92 1.68-1.229.771.299 1.55.6 2.32.91 2.53-.062 5.07-.07 7.61-.08-.052 1.31-.092 2.619-.142 3.93-3.27-.051-6.55-.12-9.77.439-2.08-1.789-4.87-1.221-7.38-1.289-3.86.18-7.842-.5-11.58.729-2.222.62-4.66.471-6.62-.79-.472 1.17.25 3.79-1.722 3.689-7.76.101-15.51-.069-23.26.051-1.06.56-2.13 1.09-3.188 1.609-1.12 3.34-4.33 5.569-7.062 7.609-.34 5.13 1.69 9.92 2.48 14.899-1.53.439-3.07.891-4.58 1.391-2.17 5.12-.84 12.109-5.86 15.681-3.85 2.239-6.398 7.109-11.59 6.34 2.64 2.2-.72 1.51-.37-.25-9.39-.83-17.3-6.34-25.46-10.539-.38 2.299-.979 4.56-1.6 6.81 3.1.59 5.66 2.87 6.21 6.05.99 6.931-.99 13.812-.96 20.761.22 4.08-1.53 7.819-3.71 11.149-1.91 2.16-4.92-.061-7.21-.38-.521 1.01-1.03 2.021-1.53 3.04.65 2.719.93 5.549 1.84 8.209 5.11 5.65 9.76 11.771 13.33 18.521a244.586 244.586 0 0 1 9.811 23.459c.279 1.551 1.739 2.108 3.021 2.67.17 1.6.34 3.198.5 4.819.5.73 1.01 1.459 1.53 2.199.31 9.861-.9 19.68-2.432 29.41-.948 4.391 1.62 8.68.58 13.1.12 2.263-1.438 3.972-2.17 5.972-.14 4.67-.37 9.399.142 14.061.358 3.42 3.25 5.619 5.21 8.17 2.14 2.271 3.93 5.32 7.17 6.129 3.05.91 5.96 2.23 8.648 3.961.82 2.029.67 4.181.28 6.289-5.86 1.08-11.84.541-17.76.632-4.562.239-8.63-2.211-13.062-2.722-4.29-.108-9.52 2.021-12.818-1.819 1.398-5.328 1.51-11.05 4.068-16.021.82-5.629-.738-11.34-.41-17.02-.488-.41-1.47-1.23-1.96-1.642.352-3.709-1.479-7.01-2.09-10.559-.398-5.183-.87-10.361-1.47-15.521-.47-2.51.83-4.809 2.6-6.479.16-2.9.552-5.771.83-8.65-.43-1.871-1.92-3.26-2.88-4.86-3.21 1.352-7.54.711-9.45-2.431-4.529-6.739-9.05-13.479-13.63-20.18-1.8-.119-3.7.07-5.38-.65-1.938-1.989-2.95-4.639-4.188-7.059-1.771 1.99-1.642 5.039-3.74 6.85-4.44 4.261-5.62 10.521-7.94 15.98-1.778 3.539-.778 7.809-2.76 11.26-1.06 1.859-3.72 2.229-4.42 4.351-.92 2.288-2 4.659-4.15 6.051-2.33 1.528-2.949 4.43-3.988 6.828-.95 2.211.46 4.53.13 6.801-1.48 7.211-6.07 13.24-8 20.301-.88 3.18-2.141 6.76-5.841 7.439-4.21 7.52-6.529 16.721-4.149 25.188 1.46 2.66 1.38 5.65.93 8.58-6.689.521-13.55 1.42-20.119-.449-1.54-3.051-1.32-6.641-1-9.938 2.029-8.672 4.72-17.191 6.369-25.951-2.06-1.83-1.579-4.629-1.54-7.08-.069-4.57 3.04-8.23 5.2-11.98.811-3.85.431-7.987 2.42-11.52 2.341-4.42 4.32-9.199 7.931-12.77.689-3.15 3.011-5.529 3.949-8.562 1-2.68-.75-5.4-.398-8.139.859-8.312 2.37-16.541 3.68-24.791-2.479-2.07-1.68-5.359-2.47-8.15.39-1.1.88-2.149 1.47-3.17-.62-.57-1.229-1.15-1.85-1.719.6-2.933.43-8.183 4.93-7.23.28-9.71-3.09-19.11-1.96-28.831.6.699 1.189 1.41 1.79 2.12l-.32-3.29c1.88-1 3.88-1.77 5.98-2.16-3.42-.449-6.75-1.319-10.102-2.1-.81-2.131-.358-4.4-.06-6.58 1.3-7.36 1.78-14.82 2.05-22.28 3.79-1.318 7.97-.199 11.67-1.96-1.148-9.33-1.438-19.069 1.88-28.02 2.67-7.621 7.771-14.971 15.73-17.65 3.76-.899 8.49-1.91 11.148 1.74.73-.67 1.46-1.36 2.19-2.03-6.069-12.054 1.181-29.664 14.953-32.144m48.569 52.28c-1.6.98-3.17 2.101-1.488 3.881-.82.489-1.642.96-2.472 1.409-1.3 1-4.22 1.569-3.88 3.591a48.68 48.68 0 0 1 3.761 7.369c3.189-2.619 5.729-6.141 7.449-9.869.36-.37 1.091-1.11 1.45-1.471-.16-1.71-.54-3.381-1.21-4.96-1.2.021-2.41.04-3.61.05z" fill="currentColor"/>
  </symbol>
  <symbol id="palette-icon" viewBox="0 0 24 24" fill="none">
    <path d="M15.5 8.5H15.51M10.5 7.5H10.51M7.5 11.5H7.51M12 21C7.02944 21 3 16.9706 3 12C3 7.02944 7.02944 3 12 3C16.9706 3 21 7.02944 21 12C21 13.6569 19.6569 15 18 15H17.4C17.0284 15 16.8426 15 16.6871 15.0246C15.8313 15.1602 15.1602 15.8313 15.0246 16.6871C15 16.8426 15 17.0284 15 17.4V18C15 19.6569 13.6569 21 12 21ZM16 8.5C16 8.77614 15.7761 9 15.5 9C15.2239 9 15 8.77614 15 8.5C15 8.22386 15.2239 8 15.5 8C15.7761 8 16 8.22386 16 8.5ZM11 7.5C11 7.77614 10.7761 8 10.5 8C10.2239 8 10 7.77614 10 7.5C10 7.22386 10.2239 7 10.5 7C10.7761 7 11 7.22386 11 7.5ZM8 11.5C8 11.7761 7.77614 12 7.5 12C7.22386 12 7 11.7761 7 11.5C7 11.2239 7.22386 11 7.5 11C7.77614 11 8 11.2239 8 11.5Z" stroke="currentColor" stroke-width="2" stroke-linecap="round" stroke-linejoin="round"/>
  </symbol>
</svg>